<svg xmlns="http://www.w3.org/2000/svg" xmlns:xlink="http://www.w3.org/1999/xlink" width="40" zoomAndPan="magnify" viewBox="0 0 30 24.749999" height="33" preserveAspectRatio="xMidYMid meet" version="1.0"><defs><filter x="0%" y="0%" width="100%" height="100%" id="3dc9edb9cf"><feColorMatrix values="0 0 0 0 1 0 0 0 0 1 0 0 0 0 1 0 0 0 1 0" color-interpolation-filters="sRGB"/></filter><g/><clipPath id="a90655933d"><path d="M 7.023438 0.136719 L 23.242188 0.136719 L 23.242188 16.472656 L 7.023438 16.472656 Z M 7.023438 0.136719 " clip-rule="nonzero"/></clipPath><mask id="5465b55f45"><g filter="url(#3dc9edb9cf)"><rect x="-3" width="36" fill="#000000" y="-2.475" height="29.699999" fill-opacity="0.8"/></g></mask><clipPath id="20d8bb9ae3"><path d="M 0.0234375 1 L 16 1 L 16 16.472656 L 0.0234375 16.472656 Z M 0.0234375 1 " clip-rule="nonzero"/></clipPath><clipPath id="73e44c0a14"><path d="M 8 15 L 13 15 L 13 16.472656 L 8 16.472656 Z M 8 15 " clip-rule="nonzero"/></clipPath><clipPath id="c8d06afc11"><path d="M 3 0.136719 L 16.242188 0.136719 L 16.242188 16 L 3 16 Z M 3 0.136719 " clip-rule="nonzero"/></clipPath><clipPath id="e02f157d19"><path d="M 9 0.136719 L 16.242188 0.136719 L 16.242188 14 L 9 14 Z M 9 0.136719 " clip-rule="nonzero"/></clipPath><clipPath id="43491bac13"><path d="M 0.0234375 5 L 16.242188 5 L 16.242188 16.472656 L 0.0234375 16.472656 Z M 0.0234375 5 " clip-rule="nonzero"/></clipPath><clipPath id="1ea332ad01"><rect x="0" width="17" y="0" height="17"/></clipPath><clipPath id="a860f88527"><path d="M 4.140625 4.132812 L 21.960938 4.132812 L 21.960938 11.554688 L 4.140625 11.554688 Z M 4.140625 4.132812 " clip-rule="nonzero"/></clipPath></defs><g clip-path="url(#a90655933d)"><g mask="url(#5465b55f45)"><g transform="matrix(1, 0, 0, 1, 7, 0)"><g clip-path="url(#1ea332ad01)"><g clip-path="url(#20d8bb9ae3)"><path fill="#c5ab7d" d="M 1.289062 6.578125 C 1.585938 5.675781 2.050781 4.835938 2.65625 4.117188 C 3.261719 3.390625 4.003906 2.785156 4.839844 2.351562 C 5.675781 1.90625 6.605469 1.636719 7.5625 1.5625 C 8.515625 1.488281 9.492188 1.601562 10.40625 1.933594 C 10.40625 1.941406 10.40625 1.945312 10.421875 1.960938 C 10.449219 1.988281 10.5 2.019531 10.566406 2.046875 C 10.632812 2.082031 10.707031 2.109375 10.78125 2.132812 C 11.183594 2.28125 11.574219 2.476562 11.953125 2.699219 C 12.632812 3.148438 13.214844 3.726562 13.691406 4.378906 C 13.601562 4.246094 13.492188 4.125 13.394531 3.996094 C 13.289062 3.875 13.183594 3.753906 13.070312 3.640625 C 12.851562 3.40625 12.605469 3.195312 12.351562 3.007812 C 12.28125 2.949219 12.207031 2.902344 12.152344 2.875 C 12.101562 2.847656 12.066406 2.839844 12.058594 2.859375 C 12.058594 2.878906 12.085938 2.914062 12.140625 2.96875 C 12.1875 3.023438 12.257812 3.082031 12.332031 3.144531 C 12.996094 3.675781 13.585938 4.378906 14.019531 5.144531 C 14.457031 5.914062 14.734375 6.738281 14.914062 7.492188 C 15.039062 8.472656 14.949219 9.476562 14.660156 10.394531 C 14.375 11.316406 13.890625 12.164062 13.273438 12.855469 C 12.65625 13.550781 11.902344 14.101562 11.089844 14.464844 C 10.28125 14.824219 9.414062 15.007812 8.570312 15.015625 C 8.503906 15.015625 8.421875 15.019531 8.390625 15.035156 C 8.34375 15.046875 8.355469 15.0625 8.417969 15.0625 C 9.300781 15.101562 10.234375 14.945312 11.132812 14.5625 C 11.574219 14.367188 12.015625 14.125 12.417969 13.824219 C 12.824219 13.523438 13.207031 13.164062 13.546875 12.761719 C 13.886719 12.359375 14.183594 11.914062 14.421875 11.425781 C 14.660156 10.941406 14.855469 10.421875 14.980469 9.878906 C 15.101562 9.335938 15.160156 8.777344 15.152344 8.203125 L 15.152344 8.097656 L 15.148438 7.988281 L 15.132812 7.773438 C 15.121094 7.632812 15.105469 7.492188 15.085938 7.351562 C 15.039062 7.070312 14.992188 6.785156 14.914062 6.511719 L 14.859375 6.308594 L 14.792969 6.105469 C 14.753906 5.972656 14.703125 5.84375 14.648438 5.71875 C 14.988281 6.445312 15.207031 7.25 15.28125 8.105469 C 15.257812 8.191406 15.253906 8.332031 15.253906 8.5 C 15.238281 8.902344 15.191406 9.300781 15.121094 9.691406 C 15.121094 9.671875 15.113281 9.664062 15.105469 9.65625 C 15.082031 9.65625 15.035156 9.796875 15 9.964844 C 14.792969 10.941406 14.382812 11.863281 13.804688 12.667969 C 13.792969 12.6875 13.78125 12.707031 13.765625 12.722656 C 13.023438 13.695312 12.035156 14.476562 10.925781 14.945312 C 9.816406 15.429688 8.597656 15.605469 7.40625 15.472656 C 7.335938 15.464844 7.261719 15.453125 7.1875 15.445312 C 7.117188 15.429688 7.042969 15.425781 6.96875 15.410156 L 6.75 15.363281 L 6.636719 15.34375 L 6.53125 15.316406 L 6.3125 15.261719 L 6.101562 15.195312 C 5.953125 15.15625 5.820312 15.09375 5.675781 15.046875 C 5.398438 14.933594 5.125 14.820312 4.867188 14.671875 C 4.734375 14.605469 4.605469 14.523438 4.480469 14.449219 C 4.414062 14.410156 4.355469 14.367188 4.296875 14.328125 C 4.234375 14.289062 4.167969 14.246094 4.109375 14.199219 C 3.140625 13.5 2.363281 12.546875 1.859375 11.464844 C 1.839844 11.398438 1.800781 11.308594 1.765625 11.269531 C 1.734375 11.222656 1.71875 11.238281 1.738281 11.304688 C 1.726562 11.304688 1.707031 11.296875 1.714844 11.316406 C 2.019531 12.15625 2.476562 12.929688 3.082031 13.609375 C 3.691406 14.28125 4.453125 14.851562 5.371094 15.242188 C 6 15.511719 6.664062 15.6875 7.339844 15.765625 C 6.636719 15.726562 5.96875 15.597656 5.371094 15.429688 C 4.535156 15.089844 3.757812 14.585938 3.101562 13.964844 C 2.445312 13.347656 1.894531 12.628906 1.46875 11.855469 L 1.515625 11.910156 C 1.480469 11.839844 1.441406 11.773438 1.40625 11.726562 C 1.375 11.679688 1.355469 11.644531 1.34375 11.652344 C 1.328125 11.652344 1.328125 11.679688 1.34375 11.734375 C 1.355469 11.78125 1.382812 11.847656 1.421875 11.921875 C 1.59375 12.296875 1.800781 12.667969 2.039062 13.019531 C 2.277344 13.367188 2.550781 13.691406 2.839844 14 C 3.140625 14.300781 3.460938 14.585938 3.804688 14.832031 C 4.148438 15.082031 4.519531 15.304688 4.90625 15.492188 C 6.453125 16.25 8.277344 16.433594 9.976562 16.007812 C 10.824219 15.792969 11.640625 15.429688 12.371094 14.933594 C 13.101562 14.4375 13.753906 13.8125 14.285156 13.089844 C 14.816406 12.371094 15.21875 11.550781 15.476562 10.691406 C 15.742188 9.832031 15.84375 8.917969 15.808594 8.007812 C 15.75 6.570312 15.273438 5.160156 14.46875 3.984375 C 13.671875 2.800781 12.542969 1.859375 11.25 1.273438 C 11.058594 1.179688 10.871094 1.132812 10.738281 1.097656 C 10.605469 1.074219 10.515625 1.074219 10.507812 1.105469 C 10.5 1.167969 10.804688 1.320312 11.175781 1.496094 C 12.414062 2.0625 13.472656 2.976562 14.230469 4.097656 C 14.992188 5.21875 15.453125 6.542969 15.53125 7.910156 C 15.566406 8.507812 15.542969 9.113281 15.4375 9.695312 C 15.339844 10.28125 15.167969 10.859375 14.941406 11.40625 C 15.285156 10.542969 15.453125 9.625 15.453125 8.707031 C 15.472656 8.359375 15.457031 8.007812 15.425781 7.660156 C 15.390625 7.3125 15.324219 6.960938 15.246094 6.613281 C 15.152344 6.269531 15.046875 5.925781 14.90625 5.597656 C 14.769531 5.265625 14.609375 4.945312 14.421875 4.636719 C 13.976562 3.882812 13.414062 3.238281 12.769531 2.710938 C 12.125 2.1875 11.402344 1.773438 10.625 1.488281 C 9.855469 1.207031 9.039062 1.046875 8.203125 1.019531 C 7.785156 1.003906 7.367188 1.023438 6.949219 1.078125 C 6.53125 1.132812 6.105469 1.226562 5.695312 1.347656 C 4.886719 1.589844 4.167969 1.945312 3.523438 2.363281 C 3.207031 2.578125 2.90625 2.808594 2.621094 3.054688 C 2.34375 3.304688 2.078125 3.574219 1.839844 3.855469 C 1.59375 4.136719 1.375 4.441406 1.175781 4.757812 C 0.976562 5.070312 0.796875 5.414062 0.636719 5.765625 C 0.484375 6.121094 0.351562 6.492188 0.253906 6.878906 C 0.152344 7.269531 0.0820312 7.671875 0.0390625 8.097656 C 0.0273438 8.246094 0.0351562 8.414062 0.0546875 8.46875 C 0.0625 8.492188 0.0742188 8.492188 0.0859375 8.46875 C 0.101562 8.441406 0.105469 8.386719 0.113281 8.3125 C 0.246094 6.691406 0.863281 5.226562 1.8125 4.050781 C 2.046875 3.753906 2.3125 3.480469 2.589844 3.222656 C 2.730469 3.089844 2.875 2.976562 3.019531 2.847656 C 3.09375 2.785156 3.171875 2.734375 3.246094 2.671875 C 3.320312 2.613281 3.40625 2.566406 3.480469 2.503906 C 3.796875 2.289062 4.128906 2.085938 4.480469 1.917969 C 4.832031 1.75 5.203125 1.601562 5.582031 1.488281 C 6.398438 1.242188 7.234375 1.132812 8.066406 1.144531 C 8.894531 1.167969 9.710938 1.3125 10.488281 1.597656 C 11.265625 1.878906 11.992188 2.289062 12.644531 2.820312 C 13.292969 3.351562 13.859375 3.996094 14.304688 4.734375 C 14.421875 4.9375 14.535156 5.140625 14.636719 5.347656 C 14.457031 5.011719 14.257812 4.6875 14.03125 4.394531 C 13.804688 4.097656 13.558594 3.820312 13.300781 3.566406 C 12.320312 2.53125 11.050781 1.8125 9.691406 1.503906 C 8.332031 1.195312 6.890625 1.289062 5.570312 1.785156 C 5.058594 1.980469 4.566406 2.222656 4.117188 2.519531 C 3.65625 2.8125 3.238281 3.164062 2.863281 3.546875 C 2.761719 3.640625 2.675781 3.746094 2.582031 3.847656 C 2.488281 3.949219 2.410156 4.058594 2.324219 4.164062 C 2.15625 4.378906 2 4.609375 1.859375 4.84375 C 1.582031 5.3125 1.347656 5.816406 1.183594 6.355469 C 1.144531 6.492188 1.101562 6.625 1.097656 6.734375 C 1.082031 6.839844 1.082031 6.921875 1.101562 6.953125 C 1.117188 6.980469 1.148438 6.953125 1.183594 6.886719 C 1.210938 6.820312 1.25 6.710938 1.289062 6.578125 Z M 11.003906 15.304688 C 11.476562 15.121094 11.925781 14.886719 12.351562 14.605469 C 11.535156 15.183594 10.601562 15.59375 9.625 15.800781 C 8.648438 16.007812 7.628906 16.015625 6.644531 15.8125 C 7.367188 15.929688 8.117188 15.949219 8.863281 15.867188 C 9.597656 15.78125 10.328125 15.59375 11.003906 15.304688 Z M 11.003906 15.304688 " fill-opacity="1" fill-rule="nonzero"/></g><g clip-path="url(#73e44c0a14)"><path fill="#c5ab7d" d="M 8.761719 16.4375 C 9.359375 16.371094 9.949219 16.230469 10.519531 16.042969 C 11.089844 15.855469 11.636719 15.621094 12.140625 15.363281 C 12.1875 15.335938 12.21875 15.332031 12.199219 15.351562 C 12.179688 15.378906 12.125 15.410156 12.074219 15.4375 C 11.589844 15.679688 11.058594 15.910156 10.507812 16.082031 C 9.957031 16.265625 9.371094 16.398438 8.800781 16.464844 C 8.734375 16.472656 8.675781 16.472656 8.667969 16.460938 C 8.65625 16.460938 8.703125 16.445312 8.761719 16.4375 Z M 8.761719 16.4375 " fill-opacity="1" fill-rule="nonzero"/></g><g clip-path="url(#c8d06afc11)"><path fill="#c5ab7d" d="M 12.84375 14.96875 C 13.621094 14.441406 14.324219 13.757812 14.882812 12.945312 C 15.433594 12.128906 15.851562 11.1875 16.070312 10.195312 C 16.289062 9.199219 16.320312 8.152344 16.15625 7.121094 C 15.988281 6.09375 15.617188 5.09375 15.074219 4.203125 C 14.191406 2.753906 12.890625 1.644531 11.410156 0.976562 C 11.316406 0.9375 11.222656 0.890625 11.132812 0.855469 L 10.847656 0.75 C 10.652344 0.683594 10.460938 0.617188 10.269531 0.566406 C 10.074219 0.507812 9.875 0.46875 9.679688 0.425781 C 9.480469 0.394531 9.28125 0.351562 9.074219 0.332031 C 8.875 0.304688 8.667969 0.292969 8.464844 0.277344 C 8.363281 0.273438 8.257812 0.273438 8.15625 0.273438 C 8.058594 0.265625 7.953125 0.273438 7.851562 0.273438 C 7.753906 0.277344 7.648438 0.273438 7.546875 0.277344 C 7.449219 0.285156 7.339844 0.292969 7.242188 0.300781 C 7.140625 0.304688 7.035156 0.320312 6.9375 0.332031 C 6.882812 0.339844 6.835938 0.347656 6.785156 0.351562 L 6.632812 0.378906 C 6.09375 0.46875 5.5625 0.609375 5.066406 0.789062 C 4.5625 0.972656 4.089844 1.195312 3.644531 1.441406 C 3.570312 1.484375 3.519531 1.503906 3.539062 1.476562 C 3.566406 1.441406 3.636719 1.386719 3.722656 1.339844 C 4.652344 0.816406 5.675781 0.460938 6.738281 0.300781 C 7.800781 0.136719 8.886719 0.179688 9.949219 0.421875 C 11.003906 0.664062 12.019531 1.121094 12.910156 1.765625 C 13.785156 2.390625 14.550781 3.210938 15.113281 4.15625 C 15.65625 5.058594 16.027344 6.066406 16.1875 7.109375 C 16.355469 8.152344 16.320312 9.214844 16.09375 10.226562 C 15.871094 11.242188 15.445312 12.199219 14.867188 13.019531 C 14.296875 13.839844 13.574219 14.53125 12.777344 15.054688 C 12.738281 15.082031 12.703125 15.089844 12.71875 15.066406 C 12.742188 15.042969 12.804688 14.992188 12.84375 14.96875 Z M 12.84375 14.96875 " fill-opacity="1" fill-rule="nonzero"/></g><g clip-path="url(#e02f157d19)"><path fill="#c5ab7d" d="M 9.917969 0.496094 C 10.480469 0.636719 11.03125 0.84375 11.554688 1.105469 C 12.074219 1.367188 12.570312 1.683594 13.023438 2.054688 C 13.480469 2.417969 13.90625 2.832031 14.277344 3.285156 C 14.65625 3.742188 14.988281 4.238281 15.273438 4.769531 C 15.585938 5.339844 15.808594 5.953125 15.957031 6.585938 C 16.101562 7.214844 16.175781 7.875 16.140625 8.554688 C 16.128906 9.003906 16.0625 9.433594 15.976562 9.859375 C 15.890625 10.273438 15.769531 10.679688 15.632812 11.066406 C 15.566406 11.261719 15.476562 11.457031 15.398438 11.644531 C 15.351562 11.742188 15.3125 11.835938 15.265625 11.929688 C 15.21875 12.023438 15.171875 12.117188 15.121094 12.210938 C 14.921875 12.582031 14.703125 12.945312 14.441406 13.300781 C 14.410156 13.347656 14.371094 13.386719 14.351562 13.394531 C 14.34375 13.386719 14.363281 13.355469 14.398438 13.308594 C 14.941406 12.535156 15.367188 11.707031 15.65625 10.832031 C 15.941406 9.960938 16.089844 9.03125 16.070312 8.070312 C 16.054688 7.625 16.003906 7.183594 15.917969 6.746094 C 15.832031 6.324219 15.703125 5.898438 15.542969 5.488281 C 15.226562 4.667969 14.769531 3.914062 14.21875 3.25 C 13.097656 1.925781 11.582031 0.972656 9.898438 0.527344 C 9.824219 0.507812 9.785156 0.496094 9.785156 0.480469 C 9.789062 0.472656 9.851562 0.480469 9.917969 0.496094 Z M 9.917969 0.496094 " fill-opacity="1" fill-rule="nonzero"/></g><path fill="#c5ab7d" d="M 14.761719 7.816406 C 14.820312 8.371094 14.816406 8.949219 14.726562 9.515625 C 14.640625 10.082031 14.484375 10.636719 14.25 11.15625 C 14.019531 11.671875 13.71875 12.144531 13.382812 12.554688 C 13.035156 12.964844 12.652344 13.308594 12.257812 13.582031 C 12.21875 13.609375 12.207031 13.609375 12.226562 13.574219 C 12.246094 13.550781 12.300781 13.5 12.332031 13.476562 C 12.71875 13.199219 13.089844 12.855469 13.40625 12.445312 C 13.726562 12.035156 14.011719 11.574219 14.222656 11.066406 C 14.4375 10.5625 14.589844 10.027344 14.667969 9.480469 C 14.742188 8.9375 14.753906 8.378906 14.703125 7.839844 C 14.695312 7.742188 14.6875 7.648438 14.707031 7.632812 C 14.722656 7.632812 14.75 7.707031 14.761719 7.816406 Z M 14.761719 7.816406 " fill-opacity="1" fill-rule="nonzero"/><g clip-path="url(#43491bac13)"><path fill="#c5ab7d" d="M 8.164062 16.277344 C 8.761719 16.269531 9.359375 16.191406 9.941406 16.042969 C 10.519531 15.894531 11.085938 15.671875 11.617188 15.398438 C 12.148438 15.121094 12.636719 14.777344 13.097656 14.394531 C 13.546875 14.011719 13.957031 13.574219 14.324219 13.105469 C 14.980469 12.171875 15.4375 11.109375 15.671875 9.992188 C 15.699219 9.832031 15.742188 9.703125 15.765625 9.710938 C 15.789062 9.710938 15.785156 9.851562 15.757812 10.011719 C 15.652344 10.585938 15.476562 11.140625 15.253906 11.671875 C 15.265625 11.660156 15.28125 11.660156 15.28125 11.667969 C 16.101562 9.796875 16.175781 7.601562 15.472656 5.664062 C 15.433594 5.554688 15.410156 5.476562 15.425781 5.46875 C 15.4375 5.460938 15.484375 5.542969 15.523438 5.648438 C 15.898438 6.660156 16.054688 7.746094 16.003906 8.816406 C 15.949219 9.886719 15.675781 10.941406 15.214844 11.894531 C 15.1875 11.96875 15.148438 12.050781 15.101562 12.136719 C 14.894531 12.535156 14.65625 12.910156 14.382812 13.261719 C 14.117188 13.609375 13.820312 13.933594 13.5 14.234375 C 12.863281 14.832031 12.125 15.324219 11.316406 15.6875 C 10.738281 15.941406 10.140625 16.136719 9.539062 16.257812 C 8.929688 16.378906 8.316406 16.425781 7.699219 16.414062 C 7.082031 16.398438 6.472656 16.304688 5.882812 16.136719 C 5.285156 15.96875 4.707031 15.734375 4.167969 15.425781 C 3.3125 14.933594 2.582031 14.253906 1.964844 13.476562 C 1.707031 13.152344 1.460938 12.796875 1.253906 12.441406 C 1.148438 12.257812 1.0625 12.078125 0.976562 11.894531 C 0.898438 11.707031 0.824219 11.527344 0.765625 11.34375 C 0.445312 10.335938 0.394531 9.382812 0.484375 8.492188 C 0.492188 8.441406 0.5 8.433594 0.503906 8.472656 C 0.511719 8.507812 0.519531 8.582031 0.511719 8.621094 C 0.472656 9.066406 0.472656 9.535156 0.53125 10.011719 C 0.585938 10.484375 0.683594 10.960938 0.8125 11.40625 C 1.144531 12.246094 1.613281 13.023438 2.191406 13.703125 C 2.777344 14.382812 3.460938 14.960938 4.222656 15.425781 C 4.527344 15.585938 4.847656 15.726562 5.164062 15.835938 C 5.484375 15.949219 5.808594 16.03125 6.132812 16.101562 C 6.796875 16.222656 7.46875 16.292969 8.164062 16.277344 Z M 8.164062 16.277344 " fill-opacity="1" fill-rule="nonzero"/></g></g></g></g></g><path fill="#c5ab7d" d="M 10.4375 9.289062 L 11.207031 9.289062 L 11.207031 8.5 L 10.4375 8.5 L 10.4375 9.289062 " fill-opacity="1" fill-rule="nonzero"/><path fill="#c5ab7d" d="M 11.648438 9.289062 L 12.421875 9.289062 L 12.421875 8.5 L 11.648438 8.5 L 11.648438 9.289062 " fill-opacity="1" fill-rule="nonzero"/><path fill="#c5ab7d" d="M 10.4375 10.523438 L 11.207031 10.523438 L 11.207031 9.738281 L 10.4375 9.738281 L 10.4375 10.523438 " fill-opacity="1" fill-rule="nonzero"/><path fill="#c5ab7d" d="M 11.648438 10.523438 L 12.421875 10.523438 L 12.421875 9.738281 L 11.648438 9.738281 L 11.648438 10.523438 " fill-opacity="1" fill-rule="nonzero"/><path fill="#c5ab7d" d="M 7.214844 10.597656 L 11.429688 6.804688 L 15.640625 10.597656 L 11.429688 6.332031 L 7.214844 10.597656 " fill-opacity="1" fill-rule="nonzero"/><g clip-path="url(#a860f88527)"><path fill="#c5ab7d" d="M 17.996094 4.132812 L 14.710938 7.476562 L 11.429688 4.132812 L 4.140625 11.554688 L 5.894531 11.554688 L 11.429688 5.917969 L 16.960938 11.554688 L 18.714844 11.554688 L 15.1875 7.964844 L 17.996094 5.105469 L 21.007812 8.175781 L 21.960938 8.175781 L 17.996094 4.132812 " fill-opacity="1" fill-rule="nonzero"/></g><path fill="#c5ab7d" d="M 17.875 6.511719 L 17.453125 6.511719 L 17.453125 6.941406 L 17.875 6.941406 L 17.875 6.511719 " fill-opacity="1" fill-rule="nonzero"/><path fill="#c5ab7d" d="M 18.535156 6.511719 L 18.113281 6.511719 L 18.113281 6.941406 L 18.535156 6.941406 L 18.535156 6.511719 " fill-opacity="1" fill-rule="nonzero"/><path fill="#c5ab7d" d="M 17.453125 7.613281 L 17.875 7.613281 L 17.875 7.183594 L 17.453125 7.183594 L 17.453125 7.613281 " fill-opacity="1" fill-rule="nonzero"/><path fill="#c5ab7d" d="M 18.113281 7.613281 L 18.535156 7.613281 L 18.535156 7.183594 L 18.113281 7.183594 L 18.113281 7.613281 " fill-opacity="1" fill-rule="nonzero"/><path fill="#c5ab7d" d="M 17.996094 5.328125 L 15.699219 7.652344 L 17.996094 5.589844 L 20.289062 7.652344 L 17.996094 5.328125 " fill-opacity="1" fill-rule="nonzero"/><g fill="#c5ab7d" fill-opacity="1"><g transform="translate(1.911279, 22.222525)"><g><path d="M 2.097656 0.0625 C 2.546875 0.0625 2.914062 -0.0742188 3.261719 -0.316406 L 3.109375 -0.683594 C 2.792969 -0.460938 2.484375 -0.34375 2.097656 -0.34375 C 1.3125 -0.34375 0.785156 -0.992188 0.785156 -2.023438 C 0.785156 -3.105469 1.347656 -3.6875 2.097656 -3.6875 C 2.484375 -3.6875 2.765625 -3.570312 3.09375 -3.351562 L 3.242188 -3.710938 C 2.847656 -3.96875 2.5 -4.089844 2.074219 -4.089844 C 1.042969 -4.089844 0.328125 -3.265625 0.328125 -2.015625 C 0.328125 -0.703125 1.117188 0.0625 2.097656 0.0625 Z M 2.097656 0.0625 "/></g></g></g><g fill="#c5ab7d" fill-opacity="1"><g transform="translate(5.355978, 22.222525)"><g><path d="M 2.828125 0 L 2.828125 -0.386719 L 0.921875 -0.386719 L 0.921875 -4.03125 L 0.488281 -4.03125 L 0.488281 0 Z M 2.828125 0 "/></g></g></g><g fill="#c5ab7d" fill-opacity="1"><g transform="translate(8.293764, 22.222525)"><g><path d="M 1.808594 0.0507812 C 2.691406 0.0507812 3.230469 -0.507812 3.230469 -1.410156 L 3.230469 -4.03125 L 2.804688 -4.03125 L 2.804688 -1.429688 C 2.804688 -0.738281 2.417969 -0.335938 1.808594 -0.335938 C 1.199219 -0.335938 0.816406 -0.738281 0.816406 -1.429688 L 0.816406 -4.03125 L 0.390625 -4.03125 L 0.390625 -1.410156 C 0.390625 -0.507812 0.933594 0.0507812 1.808594 0.0507812 Z M 1.808594 0.0507812 "/></g></g></g><g fill="#c5ab7d" fill-opacity="1"><g transform="translate(11.917033, 22.222525)"><g><path d="M 1.527344 0.0585938 C 2.292969 0.0585938 2.914062 -0.316406 2.914062 -1.03125 C 2.914062 -1.707031 2.425781 -2.011719 1.6875 -2.246094 C 1.101562 -2.453125 0.777344 -2.636719 0.777344 -3.03125 C 0.777344 -3.507812 1.164062 -3.679688 1.648438 -3.679688 C 1.976562 -3.679688 2.308594 -3.59375 2.660156 -3.421875 L 2.730469 -3.832031 C 2.378906 -4.003906 1.992188 -4.085938 1.628906 -4.085938 C 0.910156 -4.085938 0.328125 -3.726562 0.328125 -3.023438 C 0.328125 -2.4375 0.785156 -2.125 1.507812 -1.894531 C 2.085938 -1.699219 2.464844 -1.515625 2.464844 -1.023438 C 2.464844 -0.523438 2.027344 -0.34375 1.503906 -0.34375 C 1.125 -0.34375 0.65625 -0.445312 0.28125 -0.652344 L 0.230469 -0.246094 C 0.59375 -0.046875 1.066406 0.0585938 1.527344 0.0585938 Z M 1.527344 0.0585938 "/></g></g></g><g fill="#c5ab7d" fill-opacity="1"><g transform="translate(15.079475, 22.222525)"><g><path d="M 0.136719 -4.03125 L 0.136719 -3.644531 L 1.277344 -3.644531 L 1.277344 0 L 1.710938 0 L 1.710938 -3.644531 L 2.855469 -3.644531 L 2.855469 -4.03125 Z M 0.136719 -4.03125 "/></g></g></g><g fill="#c5ab7d" fill-opacity="1"><g transform="translate(18.069104, 22.222525)"><g><path d="M 0.914062 -1.929688 L 2.757812 -1.929688 L 2.757812 -2.308594 L 0.914062 -2.308594 L 0.914062 -3.644531 L 3.011719 -3.644531 L 3.011719 -4.03125 L 0.488281 -4.03125 L 0.488281 0 L 3.058594 0 L 3.058594 -0.386719 L 0.914062 -0.386719 Z M 0.914062 -1.929688 "/></g></g></g><g fill="#c5ab7d" fill-opacity="1"><g transform="translate(21.392835, 22.222525)"><g><path d="M 3.226562 0 L 2.136719 -1.507812 C 2.824219 -1.636719 3.195312 -2.074219 3.195312 -2.753906 C 3.195312 -3.582031 2.644531 -4.03125 1.722656 -4.03125 L 0.488281 -4.03125 L 0.488281 0 L 0.914062 0 L 0.914062 -1.476562 L 1.648438 -1.476562 L 2.707031 0 Z M 1.710938 -3.644531 C 2.390625 -3.644531 2.765625 -3.335938 2.765625 -2.753906 C 2.765625 -2.144531 2.378906 -1.855469 1.707031 -1.855469 L 0.914062 -1.855469 L 0.914062 -3.644531 Z M 1.710938 -3.644531 "/></g></g></g><g fill="#c5ab7d" fill-opacity="1"><g transform="translate(24.837533, 22.222525)"><g><path d="M 1.527344 0.0585938 C 2.292969 0.0585938 2.914062 -0.316406 2.914062 -1.03125 C 2.914062 -1.707031 2.425781 -2.011719 1.6875 -2.246094 C 1.101562 -2.453125 0.777344 -2.636719 0.777344 -3.03125 C 0.777344 -3.507812 1.164062 -3.679688 1.648438 -3.679688 C 1.976562 -3.679688 2.308594 -3.59375 2.660156 -3.421875 L 2.730469 -3.832031 C 2.378906 -4.003906 1.992188 -4.085938 1.628906 -4.085938 C 0.910156 -4.085938 0.328125 -3.726562 0.328125 -3.023438 C 0.328125 -2.4375 0.785156 -2.125 1.507812 -1.894531 C 2.085938 -1.699219 2.464844 -1.515625 2.464844 -1.023438 C 2.464844 -0.523438 2.027344 -0.34375 1.503906 -0.34375 C 1.125 -0.34375 0.65625 -0.445312 0.28125 -0.652344 L 0.230469 -0.246094 C 0.59375 -0.046875 1.066406 0.0585938 1.527344 0.0585938 Z M 1.527344 0.0585938 "/></g></g></g></svg>